<?xml version="1.0" standalone="no"?>
<!DOCTYPE svg PUBLIC "-//W3C//DTD SVG 20010904//EN"
 "http://www.w3.org/TR/2001/REC-SVG-20010904/DTD/svg10.dtd">
<svg version="1.0" xmlns="http://www.w3.org/2000/svg"
 width="775.000000pt" height="724.000000pt" viewBox="0 0 775.000000 724.000000"
 preserveAspectRatio="xMidYMid meet">
<metadata>
Created by potrace 1.15, written by Peter Selinger 2001-2017
</metadata>
<g transform="translate(0.000000,724.000000) scale(0.100000,-0.100000)"
fill="#000000" stroke="none">
<path d="M5915 6068 c-57 -20 -120 -94 -174 -206 -42 -84 -60 -158 -70 -279
-10 -121 -27 -166 -83 -220 -83 -80 -182 -93 -323 -43 -179 64 -292 99 -410
127 -107 25 -137 28 -285 27 -149 -1 -173 -3 -253 -27 -259 -79 -408 -194
-582 -447 -102 -150 -154 -203 -214 -221 -38 -11 -116 -6 -421 27 -25 3 -83 9
-130 14 -47 5 -211 7 -365 5 -227 -2 -302 -7 -395 -24 -244 -43 -454 -144
-620 -298 -144 -133 -353 -452 -480 -733 -50 -111 -243 -653 -259 -729 -14
-65 -14 -224 -1 -272 13 -47 55 -68 99 -49 22 9 37 28 60 82 47 103 61 177 67
343 7 214 41 382 109 539 25 59 105 220 113 228 4 4 8 -80 8 -185 1 -163 5
-213 28 -330 53 -279 156 -538 321 -807 174 -285 238 -418 271 -559 22 -94 20
-237 -5 -344 -12 -48 -21 -102 -21 -120 0 -40 30 -105 61 -134 58 -53 62 -53
577 -53 l478 0 51 25 c32 16 61 41 79 67 l29 41 0 231 c0 194 3 242 18 296 87
307 345 424 529 240 84 -84 89 -110 86 -406 l-3 -239 28 -57 c35 -72 93 -130
165 -165 l57 -28 399 -3 399 -3 52 26 c94 45 131 133 111 258 -9 49 -7 63 8
92 23 42 38 49 286 140 226 84 242 92 271 138 31 49 23 142 -16 192 -97 121
-125 174 -219 401 -37 87 -83 183 -103 213 -22 31 -78 86 -137 134 -189 150
-209 177 -209 268 0 76 35 136 114 194 87 64 140 86 374 155 116 34 216 67
223 72 6 6 12 21 12 34 0 19 -10 29 -47 47 -43 20 -48 26 -48 56 0 20 6 37 15
42 8 4 58 29 110 54 140 69 253 148 360 255 169 168 257 334 282 538 15 118 2
217 -46 340 -81 206 -72 422 25 614 48 95 43 121 -48 230 -156 185 -172 200
-228 204 -28 2 -63 -1 -80 -8z m-635 -1043 c79 -41 93 -156 28 -222 -115 -114
-297 24 -223 168 32 62 128 89 195 54z"/>
</g>
</svg>
