<?xml version="1.0" standalone="no"?>
<!DOCTYPE svg PUBLIC "-//W3C//DTD SVG 20010904//EN"
 "http://www.w3.org/TR/2001/REC-SVG-20010904/DTD/svg10.dtd">
<svg version="1.0" xmlns="http://www.w3.org/2000/svg"
 width="1000.000000pt" height="1000.000000pt" viewBox="0 0 1000.000000 1000.000000"
 preserveAspectRatio="xMidYMid meet">
<metadata>
Created by potrace 1.15, written by Peter Selinger 2001-2017
</metadata>
<g transform="translate(0.000000,1000.000000) scale(0.100000,-0.100000)"
fill="#000000" stroke="none">
<path d="M7206 7480 c-41 -13 -81 -53 -136 -136 -64 -98 -99 -208 -109 -348
-9 -124 -26 -169 -83 -223 -83 -80 -183 -93 -326 -42 -198 71 -324 108 -456
134 -124 25 -154 27 -270 22 -100 -4 -152 -11 -219 -31 -257 -76 -407 -191
-581 -445 -52 -76 -114 -155 -138 -175 -67 -57 -92 -61 -280 -42 -451 47 -469
48 -733 43 -370 -7 -546 -42 -750 -150 -203 -108 -333 -238 -509 -509 -148
-229 -221 -387 -361 -784 -118 -334 -125 -362 -125 -487 0 -121 12 -161 50
-177 52 -21 83 0 119 82 48 106 61 176 71 373 12 265 42 383 154 610 l64 130
1 -140 c2 -238 33 -430 111 -666 61 -185 129 -329 262 -549 140 -234 160 -270
202 -372 72 -173 85 -321 47 -498 -12 -52 -21 -108 -21 -125 1 -39 31 -104 61
-132 58 -53 62 -53 577 -53 l478 0 51 25 c32 16 61 41 79 67 l29 41 0 231 c0
257 8 308 68 420 111 209 315 265 466 130 27 -24 60 -66 73 -92 22 -46 23 -55
23 -307 0 -259 0 -260 26 -315 33 -70 99 -136 169 -169 l55 -26 399 -3 399 -3
53 26 c93 45 134 133 113 241 -25 125 -11 137 276 243 125 47 240 95 255 108
39 32 53 74 48 137 -3 41 -12 64 -34 91 -95 121 -125 174 -218 401 -37 87 -83
183 -103 213 -22 31 -78 86 -137 134 -189 150 -209 177 -209 268 0 75 34 133
113 192 86 65 139 87 375 157 116 34 216 67 223 72 6 6 12 21 12 34 0 19 -10
29 -47 47 -43 20 -48 26 -48 56 0 20 6 37 15 42 8 4 57 28 108 53 206 100 403
266 510 431 140 213 176 454 102 662 -60 166 -63 182 -64 318 -1 143 16 220
75 337 48 95 43 121 -48 230 -43 51 -101 117 -128 146 -46 50 -55 55 -100 58
-28 2 -63 -1 -79 -6z m-636 -1045 c79 -41 93 -156 28 -222 -115 -114 -297 24
-223 168 32 62 128 89 195 54z"/>
</g>
</svg>
